<svg width="1280" height="720" viewBox="0 0 1280 720" fill="none" xmlns="http://www.w3.org/2000/svg">
  <rect width="1280" height="720" rx="28" fill="#020617"/>
  <rect x="34" y="34" width="1212" height="652" rx="24" fill="#0F172A"/>
  <text x="84" y="102" fill="#F8FAFC" font-size="36" font-family="Arial" font-weight="700">Izmene nakon AI dorade</text>
  <rect x="954" y="66" width="220" height="52" rx="14" fill="#1D4ED8"/>
  <text x="994" y="98" fill="#DBEAFE" font-size="20" font-family="Arial" font-weight="700">AI predlog</text>
  <rect x="74" y="138" width="1132" height="76" rx="14" fill="#111827"/>
  <text x="102" y="182" fill="#C7D2FE" font-size="22" font-family="Arial">Nacrt ugovora " verzija v2.1</text>
  <rect x="74" y="234" width="1132" height="420" rx="18" fill="#111827"/>
  <rect x="102" y="272" width="1076" height="52" rx="10" fill="#064E3B"/>
  <text x="124" y="304" fill="#D1FAE5" font-size="18" font-family="Courier New">+ Dodata klauzula: rok placanja je 15 dana od prijema fakture.</text>
  <rect x="102" y="334" width="1076" height="52" rx="10" fill="#7F1D1D"/>
  <text x="124" y="366" fill="#FEE2E2" font-size="18" font-family="Courier New">- Rok placanja bice definisan naknadnim dogovorom strana.</text>
  <rect x="102" y="396" width="1076" height="52" rx="10" fill="#1E293B"/>
  <text x="124" y="428" fill="#E2E8F0" font-size="18" font-family="Courier New">  Ugovorne strane prihvataju isporuku robe u skladu sa specifikacijom.</text>
  <rect x="102" y="458" width="1076" height="52" rx="10" fill="#064E3B"/>
  <text x="124" y="490" fill="#D1FAE5" font-size="18" font-family="Courier New">+ Dodata klauzula: ugovorna kazna 0.5% po danu kasnjenja.</text>
  <rect x="102" y="520" width="1076" height="52" rx="10" fill="#7F1D1D"/>
  <text x="124" y="552" fill="#FEE2E2" font-size="18" font-family="Courier New">- Ugovorna kazna se obracunava prema internim pravilima.</text>
  <rect x="74" y="574" width="1132" height="80" rx="14" fill="#1E1B4B"/>
  <text x="104" y="620" fill="#E0E7FF" font-size="22" font-family="Arial" font-weight="700">Primeni doradu (AI)</text>
</svg>
